# xmcd
#
# Track frame offsets:
# 183
# 16050
# 36208
#
# Disc length: 725 seconds
#
#
# Revision: 0
# Processed by: cddbd v1.5.2PL0 Copyright (c) Steve Scherf et al.
# Submitted via: FreeRIP 2.943 
#
DISCID=1702d303
DTITLE=Johnny Hallyday - I wanna make love to you
DYEAR=1994
DGENRE=
TTITLE0=I wanna make love to you (edit)
TTITLE1=I wanna make love to you
TTITLE2=Before you change your mind
EXTD=maxi-CD
EXTT0=
EXTT1=
EXTT2=
PLAYORDER=
